# AST/ASF file generated using VICON BodyLanguage
# -----------------------------------------------
:version 1.10
:name VICON
:units
  mass 1.0
  length 0.45
  angle deg
:documentation
   .ast/.asf automatically generated from VICON data using
   VICON BodyBuilder and BodyLanguage model FoxedUp or BRILLIANT.MOD
:root
   order TX TY TZ RX RY RZ
   axis XYZ
   position 0 0 0  
   orientation 0 0 0 
:bonedata
  begin
     id 1 
     name lhipjoint
     direction 0.702568 -0.596508 0.388042 
     length 2.56661 
     axis 0 0 0  XYZ
  end
  begin
     id 2 
     name lfemur
     direction 0.34202 -0.939693 0  
     length 6.58374  
     axis 0 0 20  XYZ
    dof rx ry rz
    limits (-160.0 20.0)
           (-70.0 70.0)
           (-60.0 70.0)
  end
  begin
     id 3 
     name ltibia
     direction 0.34202 -0.939693 0   
     length 6.62538   
     axis 0 0 20   XYZ
    dof rx
    limits (-10.0 170.0)
  end
  begin
     id 4 
     name lfoot
     direction 0.10455 -0.287249 0.952133   
     length 2.26699   
     axis -90 7.62852e-016 20   XYZ
    dof rx rz
    limits (-45.0 90.0)
           (-70.0 20.0)
  end
  begin
     id 5 
     name ltoes
     direction 1.53572e-011 -4.22322e-011 1   
     length 1.12949   
     axis -90 7.62852e-016 20   XYZ
    dof rx
    limits (-90.0 20.0)
  end
  begin
     id 6 
     name rhipjoint
     direction -0.728055 -0.574632 0.373811   
     length 2.66432  
     axis 0 0 0  XYZ 
  end
  begin
     id 7 
     name rfemur
     direction -0.34202 -0.939693 0   
     length 6.66732   
     axis 0 0 -20   XYZ
    dof rx ry rz
    limits (-160.0 20.0)
           (-70.0 70.0)
           (-70.0 60.0)
  end
  begin
     id 8 
     name rtibia
     direction -0.34202 -0.939693 0   
     length 6.59288   
     axis 0 0 -20   XYZ
    dof rx
    limits (-10.0 170.0)
 end
 begin
     id 9 
     name rfoot
     direction -0.119193 -0.327479 0.93731   
     length 2.38061  
     axis -90 -7.62852e-016 -20   XYZ
    dof rx rz
    limits (-45.0 90.0)
           (-20.0 70.0)
  end
  begin
     id 10 
     name rtoes
     direction -1.53547e-011 -4.21827e-011 1   
     length 1.17899   
     axis -90 -7.62852e-016 -20   XYZ
    dof rx
    limits (-90.0 20.0)
  end
  begin
     id 11 
     name lowerback
     direction -0.000416114 0.999912 -0.0132284   
     length 2.12109   
     axis 0 0 0   XYZ
    dof rx ry rz
    limits (-20.0 45.0)
           (-30.0 30.0)
           (-30.0 30.0)
  end
  begin
     id 12 
     name upperback
     direction -0.00136371 0.99809 0.0617608   
     length 2.10067   
     axis 0 0 0   XYZ
    dof rx ry rz
    limits (-20.0 45.0)
           (-30.0 30.0)
           (-30.0 30.0)
  end
  begin
     id 13 
     name thorax
     direction -3.43026e-005 0.997776 0.0666515   
     length 2.10618   
     axis 0 0 0   XYZ
    dof rx ry rz
    limits (-20.0 45.0)
           (-30.0 30.0)
           (-30.0 30.0)
  end
  begin
     id 14 
     name lowerneck
     direction 0.0398646 0.998418 0.0396592   
     length 1.83817   
     axis 0 0 0   XYZ
    dof rx ry rz
    limits (-20.0 45.0)
           (-30.0 30.0)
           (-30.0 30.0)
  end
  begin
     id 15 
     name upperneck
     direction -0.0367268 0.961527 -0.272244   
     length 1.81975   
     axis 0 0 0   XYZ
    dof rx ry rz
    limits (-20.0 45.0)
           (-30.0 30.0)
           (-30.0 30.0)
  end
  begin
     id 16
     name head
     direction -0.0182665 0.99536 -0.0944669  
     length 1.86026  
     axis 0 0 0   XYZ
    dof rx ry rz
    limits (-20.0 45.0)
           (-30.0 30.0)
           (-30.0 30.0)
  end
  begin
     id 17 
     name lclavicle
     direction 0.924239 0.361045 0.124212  
     length 3.26878  
     axis 0 0 0   XYZ
    dof ry rz
    limits (-20.0 10.0)
           (0.0 20.0)
  end
  begin
     id 18 
     name lhumerus
     direction 1 -4.48968e-011 -2.56583e-027   
     length 4.58538   
     axis 180 -30 -90   XYZ
    dof rx ry rz
    limits (-60.0 90.0)
           (-90.0 90.0)
           (-90.0 90.0)
  end
  begin
     id 19
     name lradius
     direction 1 -4.4898e-011 -5.50375e-027   
     length 2.68935   
     axis 180 -30 -90   XYZ
    dof rx
    limits (-10.0 170.0)
  end
  begin
     id 20
     name lwrist
     direction 1 -4.48939e-011 -1.48955e-026   
     length 1.34468   
     axis 9.0955e-015 90 90   XYZ
    dof ry
    limits (-180.0 0.0)
 end
  begin
     id 21 
     name lhand
     direction 1 -4.48936e-011 -2.97907e-026   
     length 0.585058   
     axis 1.90115e-014 90 90   XYZ
    dof rx rz
    limits (-90.0 90.0)
           (-45.0 45.0)
  end
  begin
     id 22 
     name lfingers
     direction 1 -4.49082e-011 -5.96235e-026   
     length 0.471689   
     axis 3.80223e-014 90 90   XYZ
    dof rx
    limits (0.0 90.0)
  end
  begin
     id 23
     name lthumb
     direction 0.707107 -6.3489e-011 0.707107   
     length 0.677253   
     axis -90 45 -3.84942e-014   XYZ
    dof rx rz
    limits (-45.0 45.0)
           (-45.0 45.0)
  end
  begin
     id 24 
     name rclavicle
     direction -0.923098 0.371783 0.0983239   
     length 3.19656  
     axis 0 0 0   XYZ 
    dof ry rz
    limits (-10.0 20.0)
           (-20.0 0.0)
  end
  begin
     id 25 
     name rhumerus
     direction -1 -4.48976e-011 -2.5492e-027  
     length 4.4745   
     axis 180 30 90   XYZ
    dof rx ry rz
    limits (-90.0 60.0)
           (-90.0 90.0)
           (-90.0 90.0)
  end
  begin
     id 26 
     name rradius
     direction -1 -4.48941e-011 -4.36555e-027   
     length 2.93896   
     axis 180 30 90   XYZ
    dof rx
    limits (-10.0 170.0)
  end
  begin
     id 27 
     name rwrist
     direction -1 -4.49044e-011 -1.49032e-026   
     length 1.46948   
     axis 9.0955e-015 -90 -90   XYZ
    dof ry
    limits (-180.0 0.0)
  end
  begin
     id 28
     name rhand
     direction -1 -4.48826e-011 -2.97749e-026   
     length 0.405092   
     axis 1.90115e-014 -90 -90   XYZ
    dof rx rz
    limits (-90.0 90.0)
           (-45.0 45.0)
  end
  begin
     id 29
     name rfingers
     direction -1 -4.49209e-011 -5.96602e-026   
     length 0.326596   
     axis 3.80223e-014 -90 -90   XYZ
    dof rx
    limits (0.0 90.0)
  end
  begin
     id 30
     name rthumb
     direction -0.707107 -6.34776e-011 0.707107   
     length 0.468928   
     axis -90 -45 3.84942e-014   XYZ
    dof rx rz
    limits (-45.0 45.0)
           (-45.0 45.0)
  end
:hierarchy
  begin
    root lhipjoint rhipjoint lowerback
    lhipjoint lfemur
    lfemur ltibia
    ltibia lfoot
    lfoot ltoes
    rhipjoint rfemur
    rfemur rtibia
    rtibia rfoot
    rfoot rtoes
    lowerback upperback
    upperback thorax
    thorax lowerneck lclavicle rclavicle
    lowerneck upperneck
    upperneck head
    lclavicle lhumerus
    lhumerus lradius
    lradius lwrist
    lwrist lhand lthumb
    lhand lfingers
    rclavicle rhumerus
    rhumerus rradius
    rradius rwrist
    rwrist rhand rthumb
    rhand rfingers
  end

#!OML:ASF H:\Punching\Project 1\Capture day 1\Session 1\female.ASF
:FULLY-SPECIFIED
:DEGREES
77
root 1.56726 15.7039 5.5641 10.6015 -14.3003 0.770333
lowerback -1.56895 -0.548162 0.799764
upperback -6.07156 -0.708004 0.82265
thorax -5.39529 -0.379051 0.427834
lowerneck -5.62729 7.69559 14.7487
upperneck 21.2152 11.7795 -14.2131
head 9.28853 5.50533 -6.155
rclavicle 3.92972e-014 -5.1684e-015
rhumerus -0.906344 14.5998 -91.7994
rradius 48.8996
rwrist -16.0415
rhand -21.6603 -10.2223
rfingers 7.12502
rthumb 4.73678 -40.1494
lclavicle 3.92972e-014 -5.1684e-015
lhumerus -40.1007 -40.8302 107.345
lradius 104.201
lwrist 46.8085
lhand 1.36969 23.8821
lfingers 7.12502
lthumb 26.9016 51.9877
rfemur -24.2273 2.00246 18.224
rtibia 32.9135
rfoot -22.4688 -20.5539
rtoes -3.75807
lfemur -13.8822 -5.50147 -15.9756
ltibia 22.6921
lfoot -18.0766 25.6208
ltoes 1.43272
78
root 1.54574 15.6902 5.57609 10.4401 -14.3875 0.726618
lowerback -1.39496 -0.55379 1.08143
upperback -6.05241 -0.709307 0.792671
thorax -5.47869 -0.394346 0.241289
lowerneck -5.4282 7.73796 14.7559
upperneck 21.1459 11.8934 -14.3724
head 9.25648 5.55491 -6.20429
rclavicle -2.00773e-014 -2.06736e-014
rhumerus -0.668673 15.9332 -92.3477
rradius 49.9995
rwrist -15.4727
rhand -21.7737 -9.26319
rfingers 7.12502
rthumb 4.62725 -39.1926
lclavicle -2.00773e-014 -2.06736e-014
lhumerus -39.5896 -41.7078 107.805
lradius 105.611
lwrist 48.1453
lhand 1.56839 23.671
lfingers 7.12502
lthumb 27.0917 51.7471
rfemur -24.1019 1.8704 18.3311
rtibia 33.092
rfoot -22.4312 -19.8844
rtoes -4.41122
lfemur -14.2318 -4.71361 -15.9335
ltibia 23.8751
lfoot -18.35 25.0811
ltoes 1.03455
79
root 1.525 15.676 5.58925 10.2813 -14.4405 0.650231
lowerback -1.19521 -0.569848 1.40187
upperback -6.05126 -0.721611 0.772806
thorax -5.59682 -0.417178 0.044501
lowerneck -5.22719 7.77333 14.7625
upperneck 21.1062 11.998 -14.5203
head 9.23223 5.60112 -6.2516
rclavicle -5.28767e-014 5.1684e-015
rhumerus -0.490915 17.2869 -92.8771
rradius 51.1327
rwrist -14.9675
rhand -21.9121 -8.37277
rfingers 7.12502
rthumb 4.49364 -38.3051
lclavicle -5.28767e-014 5.1684e-015
lhumerus -39.0634 -42.5612 108.252
lradius 106.948
lwrist 49.5243
lhand 1.81589 23.4455
lfingers 7.12502
lthumb 27.3285 51.4846
rfemur -23.9488 1.72117 18.4743
rtibia 33.2581
rfoot -22.4167 -19.2489
rtoes -4.95689
lfemur -14.6801 -3.94347 -15.8521
ltibia 25.2416
lfoot -18.6193 24.5444
ltoes 0.657819
80
root 1.50523 15.6617 5.60345 10.129 -14.4478 0.541317
lowerback -0.979961 -0.602536 1.7533
upperback -6.06235 -0.752641 0.771776
thorax -5.73798 -0.45092 -0.148854
lowerneck -5.04154 7.8112 14.7653
upperneck 21.0982 12.1071 -14.6631
head 9.22226 5.64878 -6.29632
rclavicle 1.76794e-014 -3.97569e-016
rhumerus -0.367099 18.6909 -93.3722
rradius 52.3176
rwrist -14.5935
rhand -22.1108 -7.52259
rfingers 7.12502
rthumb 4.30178 -37.4589
lclavicle 1.76794e-014 -3.97569e-016
lhumerus -38.5177 -43.3783 108.698
lradius 108.209
lwrist 50.9202
lhand 2.12085 23.1984
lfingers 7.12502
lthumb 27.6202 51.1912
rfemur -23.7693 1.54697 18.6557
rtibia 33.4105
rfoot -22.4309 -18.6764
rtoes -5.39574
lfemur -15.2321 -3.1993 -15.7308
ltibia 26.7783
lfoot -18.85 24.017
ltoes 0.301246
81
root 1.4863 15.6477 5.61856 9.9843 -14.4208 0.404021
lowerback -0.769795 -0.650349 2.11413
upperback -6.07007 -0.800944 0.794422
thorax -5.87382 -0.493464 -0.321959
lowerneck -4.87585 7.85189 14.7565
upperneck 21.1001 12.2194 -14.8021
head 9.21924 5.69651 -6.33695
rclavicle 7.93151e-014 1.19271e-014
rhumerus -0.271688 20.1558 -93.8208
rradius 53.5605
rwrist -14.3807
rhand -22.3951 -6.70682
rfingers 7.12502
rthumb 4.02726 -36.6485
lclavicle 7.93151e-014 1.19271e-014
lhumerus -37.9214 -44.166 109.123
lradius 109.398
lwrist 52.3344
lhand 2.4604 22.9428
lfingers 7.12502
lthumb 27.9448 50.8831
rfemur -23.5674 1.36027 18.87
rtibia 33.5473
rfoot -22.4688 -18.1762
rtoes -5.72259
lfemur -15.88 -2.47666 -15.5758
ltibia 28.4637
lfoot -19.0021 23.509
ltoes -0.0704069
82
root 1.46816 15.634 5.63428 9.84545 -14.3643 0.248926
lowerback -0.587731 -0.712826 2.46192
upperback -6.05939 -0.867234 0.845405
thorax -5.97485 -0.543413 -0.457728
lowerneck -4.73478 7.89925 14.7219
upperneck 21.098 12.3402 -14.9383
head 9.21924 5.74548 -6.37014
rclavicle 8.62228e-015 9.54166e-015
rhumerus -0.1819 21.6778 -94.2062
rradius 54.8623
rwrist -14.3093
rhand -22.7401 -5.92604
rfingers 7.12502
rthumb 3.69405 -35.8738
lclavicle 8.62228e-015 9.54166e-015
lhumerus -37.2384 -44.9274 109.507
lradius 110.521
lwrist 53.7898
lhand 2.78131 22.6984
lfingers 7.12502
lthumb 28.2516 50.5884
rfemur -23.3501 1.17392 19.1044
rtibia 33.6724
rfoot -22.5208 -17.7552
rtoes -5.94724
lfemur -16.6132 -1.77878 -15.3984
ltibia 30.27
lfoot -19.0702 23.0249
ltoes -0.404701
83
root 1.45083 15.6208 5.65064 9.70585 -14.2796 0.079393
lowerback -0.430133 -0.791236 2.79201
upperback -6.02694 -0.953928 0.921415
thorax -6.03959 -0.601501 -0.556814
lowerneck -4.61325 7.95398 14.6776
upperneck 21.0831 12.4701 -15.0813
head 9.22008 5.79679 -6.40192
rclavicle 3.05631e-014 1.07344e-014
rhumerus -0.0928828 23.237 -94.5395
rradius 56.2106
rwrist -14.3441
rhand -23.1198 -5.17233
rfingers 7.12502
rthumb 3.32743 -35.1261
lclavicle 3.05631e-014 1.07344e-014
lhumerus -36.4739 -45.6516 109.839
lradius 111.59
lwrist 55.2766
lhand 3.05251 22.4957
lfingers 7.12502
lthumb 28.5107 50.3425
rfemur -23.1156 0.991513 19.3549
rtibia 33.7899
rfoot -22.5726 -17.4088
rtoes -6.10428
lfemur -17.4114 -1.10403 -15.2034
ltibia 32.1671
lfoot -19.0495 22.568
ltoes -0.66004
84
root 1.43421 15.6077 5.66758 9.56035 -14.1779 -0.093246
lowerback -0.302347 -0.879191 3.09295
upperback -5.96487 -1.05406 1.01503
thorax -6.05613 -0.663437 -0.62114
lowerneck -4.50432 8.01134 14.6222
upperneck 21.036 12.6007 -15.2301
head 9.21214 5.84702 -6.43249
rclavicle -1.59028e-015 1.35174e-014
rhumerus 0.00812629 24.7885 -94.8188
rradius 57.589
rwrist -14.3929
rhand -23.4419 -4.451
rfingers 7.12502
rthumb 3.01635 -34.4094
lclavicle -1.59028e-015 1.35174e-014
lhumerus -35.6324 -46.3571 110.114
lradius 112.626
lwrist 56.8682
lhand 3.14857 22.3509
lfingers 7.12502
lthumb 28.6025 50.1824
rfemur -22.8707 0.820921 19.6084
rtibia 33.9092
rfoot -22.6187 -17.1286
rtoes -6.18752
lfemur -18.2526 -0.446991 -15.0037
ltibia 34.1238
lfoot -18.9394 22.1246
ltoes -0.786965
85
root 1.41836 15.5947 5.68522 9.39915 -14.0638 -0.253186
lowerback -0.188138 -0.973445 3.36156
upperback -5.88236 -1.16382 1.11178
thorax -6.04342 -0.727687 -0.663888
lowerneck -4.3828 8.06236 14.56
upperneck 20.9512 12.7194 -15.3798
head 9.18642 5.89236 -6.46318
rclavicle -4.5969e-015 -1.19271e-015
rhumerus 0.09434 26.3119 -95.0582
rradius 58.9892
rwrist -14.4093
rhand -23.6894 -3.75151
rfingers 7.12502
rthumb 2.7773 -33.7132
lclavicle -4.5969e-015 -1.19271e-015
lhumerus -34.737 -47.0344 110.323
lradius 113.629
lwrist 58.5303
lhand 3.09289 22.2735
lfingers 7.12502
lthumb 28.5493 50.1138
rfemur -22.6137 0.656892 19.8474
rtibia 34.0383
rfoot -22.6588 -16.9051
rtoes -6.21579
lfemur -19.1164 0.193933 -14.8171
ltibia 36.1088
lfoot -18.7362 21.6758
ltoes -0.79709
86
root 1.40324 15.5816 5.70363 9.21942 -13.9476 -0.394914
lowerback -0.0537963 -1.06709 3.60257
upperback -5.79773 -1.27268 1.19948
thorax -6.04017 -0.790226 -0.699981
lowerneck -4.25482 8.10636 14.5123
upperneck 20.8503 12.8246 -15.5296
head 9.15276 5.93325 -6.49803
rclavicle 2.5196e-014 2.26615e-014
rhumerus 0.122752 27.77 -95.2879
rradius 60.4102
rwrist -14.3452
rhand -23.8772 -3.08732
rfingers 7.12502
rthumb 2.59598 -33.0513
lclavicle 2.5196e-014 2.26615e-014
lhumerus -33.8509 -47.6854 110.497
lradius 114.595
lwrist 60.2061
lhand 2.91481 22.2327
lfingers 7.12502
lthumb 28.3791 50.1015
rfemur -22.3501 0.50031 20.0654
rtibia 34.1875
rfoot -22.6972 -16.7365
rtoes -6.21608
lfemur -19.9839 0.823839 -14.6489
ltibia 38.0873
lfoot -18.445 21.2016
ltoes -0.675168
87
root 1.38892 15.5681 5.72305 9.02116 -13.8424 -0.512693
lowerback 0.101385 -1.15687 3.81079
upperback -5.71352 -1.37646 1.27425
thorax -6.04907 -0.848943 -0.730644
lowerneck -4.11457 8.14158 14.4787
upperneck 20.7316 12.9135 -15.6772
head 9.10883 5.96893 -6.53662
rclavicle 8.24956e-015 2.38542e-015
rhumerus 0.0869745 29.1489 -95.5176
rradius 61.8308
rwrist -14.1419
rhand -23.9785 -2.44659
rfingers 7.12502
rthumb 2.49814 -32.4117
lclavicle 8.24956e-015 2.38542e-015
lhumerus -32.9721 -48.2993 110.62
lradius 115.509
lwrist 61.8186
lhand 2.68601 22.2131
lfingers 7.12502
lthumb 28.1605 50.1182
rfemur -22.0839 0.355591 20.2538
rtibia 34.3618
rfoot -22.7429 -16.6169
rtoes -6.21217
lfemur -20.8387 1.43751 -14.5043
ltibia 40.0242
lfoot -18.068 20.6936
ltoes -0.436608
